<mxfile host="app.diagrams.net" agent="Mozilla/5.0 (Windows NT 10.0; Win64; x64) AppleWebKit/537.36 (KHTML, like Gecko) Chrome/134.0.0.0 Safari/537.36" version="24.7.16">
  <diagram name="Strona-1" id="dpgPGReGXKAq9kY3cMfz">
    <mxGraphModel dx="2755" dy="615" grid="1" gridSize="10" guides="1" tooltips="1" connect="1" arrows="1" fold="1" page="1" pageScale="1" pageWidth="827" pageHeight="1169" math="0" shadow="0">
      <root>
        <mxCell id="0" />
        <mxCell id="1" parent="0" />
        <mxCell id="CzGPOO1i0U-1WX9AUfrC-65" value="" style="rounded=0;whiteSpace=wrap;html=1;" vertex="1" parent="1">
          <mxGeometry x="-110" y="190" width="850" height="390" as="geometry" />
        </mxCell>
        <mxCell id="CzGPOO1i0U-1WX9AUfrC-2" value="API Gateway" style="rounded=0;whiteSpace=wrap;html=1;" vertex="1" parent="1">
          <mxGeometry x="350" y="190" width="120" height="60" as="geometry" />
        </mxCell>
        <mxCell id="CzGPOO1i0U-1WX9AUfrC-4" value="user-service" style="rounded=0;whiteSpace=wrap;html=1;" vertex="1" parent="1">
          <mxGeometry x="230" y="300" width="120" height="60" as="geometry" />
        </mxCell>
        <mxCell id="CzGPOO1i0U-1WX9AUfrC-5" value="product-service" style="rounded=0;whiteSpace=wrap;html=1;" vertex="1" parent="1">
          <mxGeometry x="230" y="380" width="120" height="60" as="geometry" />
        </mxCell>
        <mxCell id="CzGPOO1i0U-1WX9AUfrC-8" value="User (React App)" style="text;html=1;align=center;verticalAlign=middle;whiteSpace=wrap;rounded=0;" vertex="1" parent="1">
          <mxGeometry x="449" y="84" width="100" height="30" as="geometry" />
        </mxCell>
        <mxCell id="CzGPOO1i0U-1WX9AUfrC-9" value="" style="image;aspect=fixed;html=1;points=[];align=center;fontSize=12;image=img/lib/azure2/databases/Azure_Database_PostgreSQL_Server.svg;" vertex="1" parent="1">
          <mxGeometry x="140" y="298" width="48" height="64" as="geometry" />
        </mxCell>
        <mxCell id="CzGPOO1i0U-1WX9AUfrC-10" value="" style="shape=image;html=1;verticalAlign=top;verticalLabelPosition=bottom;labelBackgroundColor=#ffffff;imageAspect=0;aspect=fixed;image=https://cdn3.iconfinder.com/data/icons/brands-pack/240/react-128.png" vertex="1" parent="1">
          <mxGeometry x="371" y="60" width="78" height="78" as="geometry" />
        </mxCell>
        <mxCell id="CzGPOO1i0U-1WX9AUfrC-12" value="" style="endArrow=classic;startArrow=classic;html=1;rounded=0;entryX=0;entryY=0.5;entryDx=0;entryDy=0;" edge="1" parent="1" source="CzGPOO1i0U-1WX9AUfrC-9" target="CzGPOO1i0U-1WX9AUfrC-4">
          <mxGeometry width="50" height="50" relative="1" as="geometry">
            <mxPoint x="340" y="320" as="sourcePoint" />
            <mxPoint x="390" y="270" as="targetPoint" />
          </mxGeometry>
        </mxCell>
        <mxCell id="CzGPOO1i0U-1WX9AUfrC-13" value="" style="image;aspect=fixed;html=1;points=[];align=center;fontSize=12;image=img/lib/azure2/databases/Azure_Database_PostgreSQL_Server.svg;" vertex="1" parent="1">
          <mxGeometry x="140" y="376" width="48" height="64" as="geometry" />
        </mxCell>
        <mxCell id="CzGPOO1i0U-1WX9AUfrC-14" value="" style="endArrow=classic;startArrow=classic;html=1;rounded=0;entryX=0;entryY=0.5;entryDx=0;entryDy=0;" edge="1" parent="1" source="CzGPOO1i0U-1WX9AUfrC-13" target="CzGPOO1i0U-1WX9AUfrC-5">
          <mxGeometry width="50" height="50" relative="1" as="geometry">
            <mxPoint x="-0.0019999999999527063" y="406.006" as="sourcePoint" />
            <mxPoint x="208.99" y="409.99" as="targetPoint" />
          </mxGeometry>
        </mxCell>
        <mxCell id="CzGPOO1i0U-1WX9AUfrC-15" value="RabbitMQ" style="rounded=0;whiteSpace=wrap;html=1;fillColor=#FF8000;" vertex="1" parent="1">
          <mxGeometry x="570" y="350" width="120" height="60" as="geometry" />
        </mxCell>
        <mxCell id="CzGPOO1i0U-1WX9AUfrC-18" value="search-service" style="rounded=0;whiteSpace=wrap;html=1;" vertex="1" parent="1">
          <mxGeometry x="230" y="459" width="120" height="60" as="geometry" />
        </mxCell>
        <mxCell id="CzGPOO1i0U-1WX9AUfrC-21" value="" style="image;sketch=0;aspect=fixed;html=1;points=[];align=center;fontSize=12;image=img/lib/mscae/Cache_Redis_Product.svg;" vertex="1" parent="1">
          <mxGeometry x="138" y="468" width="50" height="42" as="geometry" />
        </mxCell>
        <mxCell id="CzGPOO1i0U-1WX9AUfrC-22" value="" style="endArrow=classic;startArrow=classic;html=1;rounded=0;entryX=0;entryY=0.5;entryDx=0;entryDy=0;" edge="1" parent="1" source="CzGPOO1i0U-1WX9AUfrC-21" target="CzGPOO1i0U-1WX9AUfrC-18">
          <mxGeometry width="50" height="50" relative="1" as="geometry">
            <mxPoint x="420" y="470" as="sourcePoint" />
            <mxPoint x="470" y="420" as="targetPoint" />
          </mxGeometry>
        </mxCell>
        <mxCell id="CzGPOO1i0U-1WX9AUfrC-24" value="" style="endArrow=classic;startArrow=classic;html=1;rounded=0;entryX=0.5;entryY=1;entryDx=0;entryDy=0;" edge="1" parent="1" target="CzGPOO1i0U-1WX9AUfrC-10">
          <mxGeometry width="50" height="50" relative="1" as="geometry">
            <mxPoint x="410" y="190" as="sourcePoint" />
            <mxPoint x="470" y="420" as="targetPoint" />
          </mxGeometry>
        </mxCell>
        <mxCell id="CzGPOO1i0U-1WX9AUfrC-27" value="Service Discovery&lt;div&gt;Eureka&lt;/div&gt;" style="rounded=0;whiteSpace=wrap;html=1;fillColor=#009999;" vertex="1" parent="1">
          <mxGeometry x="570" y="430" width="120" height="60" as="geometry" />
        </mxCell>
        <mxCell id="CzGPOO1i0U-1WX9AUfrC-28" value="Prometheus" style="rounded=0;whiteSpace=wrap;html=1;strokeColor=#FF6666;" vertex="1" parent="1">
          <mxGeometry x="-70" y="340" width="120" height="60" as="geometry" />
        </mxCell>
        <mxCell id="CzGPOO1i0U-1WX9AUfrC-29" value="Grafana" style="rounded=0;whiteSpace=wrap;html=1;strokeColor=#FF6666;" vertex="1" parent="1">
          <mxGeometry x="-70" y="420" width="120" height="60" as="geometry" />
        </mxCell>
        <mxCell id="CzGPOO1i0U-1WX9AUfrC-30" value="Loki + Promatil" style="rounded=0;whiteSpace=wrap;html=1;strokeColor=#FF6666;" vertex="1" parent="1">
          <mxGeometry x="-70" y="500" width="120" height="60" as="geometry" />
        </mxCell>
        <mxCell id="CzGPOO1i0U-1WX9AUfrC-40" value="" style="endArrow=none;html=1;rounded=0;entryX=0.5;entryY=1;entryDx=0;entryDy=0;" edge="1" parent="1" target="CzGPOO1i0U-1WX9AUfrC-2">
          <mxGeometry width="50" height="50" relative="1" as="geometry">
            <mxPoint x="410" y="490" as="sourcePoint" />
            <mxPoint x="460" y="400" as="targetPoint" />
          </mxGeometry>
        </mxCell>
        <mxCell id="CzGPOO1i0U-1WX9AUfrC-41" value="" style="endArrow=classic;html=1;rounded=0;" edge="1" parent="1" target="CzGPOO1i0U-1WX9AUfrC-4">
          <mxGeometry width="50" height="50" relative="1" as="geometry">
            <mxPoint x="410" y="330" as="sourcePoint" />
            <mxPoint x="460" y="400" as="targetPoint" />
          </mxGeometry>
        </mxCell>
        <mxCell id="CzGPOO1i0U-1WX9AUfrC-42" value="" style="endArrow=classic;html=1;rounded=0;entryX=1;entryY=0.5;entryDx=0;entryDy=0;" edge="1" parent="1" target="CzGPOO1i0U-1WX9AUfrC-5">
          <mxGeometry width="50" height="50" relative="1" as="geometry">
            <mxPoint x="410" y="410" as="sourcePoint" />
            <mxPoint x="460" y="400" as="targetPoint" />
          </mxGeometry>
        </mxCell>
        <mxCell id="CzGPOO1i0U-1WX9AUfrC-43" value="" style="endArrow=classic;html=1;rounded=0;" edge="1" parent="1" target="CzGPOO1i0U-1WX9AUfrC-18">
          <mxGeometry width="50" height="50" relative="1" as="geometry">
            <mxPoint x="410" y="490" as="sourcePoint" />
            <mxPoint x="460" y="400" as="targetPoint" />
          </mxGeometry>
        </mxCell>
        <mxCell id="CzGPOO1i0U-1WX9AUfrC-45" value="" style="endArrow=none;html=1;rounded=0;exitX=1;exitY=0.75;exitDx=0;exitDy=0;fillColor=#009999;strokeColor=#009999;" edge="1" parent="1" source="CzGPOO1i0U-1WX9AUfrC-18">
          <mxGeometry width="50" height="50" relative="1" as="geometry">
            <mxPoint x="420" y="530" as="sourcePoint" />
            <mxPoint x="480" y="504" as="targetPoint" />
          </mxGeometry>
        </mxCell>
        <mxCell id="CzGPOO1i0U-1WX9AUfrC-46" value="" style="endArrow=none;html=1;rounded=0;strokeColor=#009999;" edge="1" parent="1">
          <mxGeometry width="50" height="50" relative="1" as="geometry">
            <mxPoint x="480" y="350" as="sourcePoint" />
            <mxPoint x="480" y="506" as="targetPoint" />
          </mxGeometry>
        </mxCell>
        <mxCell id="CzGPOO1i0U-1WX9AUfrC-47" value="" style="endArrow=none;html=1;rounded=0;exitX=0.997;exitY=0.817;exitDx=0;exitDy=0;exitPerimeter=0;fillColor=#009999;strokeColor=#009999;" edge="1" parent="1" source="CzGPOO1i0U-1WX9AUfrC-4">
          <mxGeometry width="50" height="50" relative="1" as="geometry">
            <mxPoint x="480" y="420" as="sourcePoint" />
            <mxPoint x="480" y="350" as="targetPoint" />
          </mxGeometry>
        </mxCell>
        <mxCell id="CzGPOO1i0U-1WX9AUfrC-48" value="" style="endArrow=classic;html=1;rounded=0;entryX=0;entryY=0.5;entryDx=0;entryDy=0;fillColor=#009999;strokeColor=#009999;" edge="1" parent="1" target="CzGPOO1i0U-1WX9AUfrC-27">
          <mxGeometry width="50" height="50" relative="1" as="geometry">
            <mxPoint x="480" y="460" as="sourcePoint" />
            <mxPoint x="530" y="418" as="targetPoint" />
          </mxGeometry>
        </mxCell>
        <mxCell id="CzGPOO1i0U-1WX9AUfrC-49" value="" style="endArrow=none;html=1;rounded=0;exitX=1.02;exitY=0.193;exitDx=0;exitDy=0;exitPerimeter=0;strokeColor=#FF8000;" edge="1" parent="1">
          <mxGeometry width="50" height="50" relative="1" as="geometry">
            <mxPoint x="350.0000000000001" y="470.58000000000004" as="sourcePoint" />
            <mxPoint x="460" y="471" as="targetPoint" />
          </mxGeometry>
        </mxCell>
        <mxCell id="CzGPOO1i0U-1WX9AUfrC-50" value="" style="endArrow=none;html=1;rounded=0;exitX=1.02;exitY=0.19;exitDx=0;exitDy=0;exitPerimeter=0;strokeColor=#FF8000;" edge="1" parent="1" source="CzGPOO1i0U-1WX9AUfrC-5">
          <mxGeometry width="50" height="50" relative="1" as="geometry">
            <mxPoint x="480" y="420" as="sourcePoint" />
            <mxPoint x="460" y="391" as="targetPoint" />
          </mxGeometry>
        </mxCell>
        <mxCell id="CzGPOO1i0U-1WX9AUfrC-53" value="" style="endArrow=none;html=1;rounded=0;strokeColor=#FF8000;" edge="1" parent="1">
          <mxGeometry width="50" height="50" relative="1" as="geometry">
            <mxPoint x="460" y="470" as="sourcePoint" />
            <mxPoint x="460" y="390" as="targetPoint" />
          </mxGeometry>
        </mxCell>
        <mxCell id="CzGPOO1i0U-1WX9AUfrC-54" value="" style="endArrow=classic;html=1;rounded=0;entryX=0;entryY=0.667;entryDx=0;entryDy=0;entryPerimeter=0;strokeColor=#FF8000;" edge="1" parent="1" target="CzGPOO1i0U-1WX9AUfrC-15">
          <mxGeometry width="50" height="50" relative="1" as="geometry">
            <mxPoint x="460" y="390" as="sourcePoint" />
            <mxPoint x="530" y="360" as="targetPoint" />
          </mxGeometry>
        </mxCell>
        <mxCell id="CzGPOO1i0U-1WX9AUfrC-57" value="" style="endArrow=none;html=1;rounded=0;entryX=0.5;entryY=1;entryDx=0;entryDy=0;strokeColor=#FF6666;" edge="1" parent="1" target="CzGPOO1i0U-1WX9AUfrC-4">
          <mxGeometry width="50" height="50" relative="1" as="geometry">
            <mxPoint x="80" y="370" as="sourcePoint" />
            <mxPoint x="420" y="350" as="targetPoint" />
            <Array as="points">
              <mxPoint x="290" y="370" />
            </Array>
          </mxGeometry>
        </mxCell>
        <mxCell id="CzGPOO1i0U-1WX9AUfrC-58" value="" style="endArrow=none;html=1;rounded=0;entryX=0.5;entryY=1;entryDx=0;entryDy=0;strokeColor=#FF6666;" edge="1" parent="1">
          <mxGeometry width="50" height="50" relative="1" as="geometry">
            <mxPoint x="80" y="450" as="sourcePoint" />
            <mxPoint x="290" y="440" as="targetPoint" />
            <Array as="points">
              <mxPoint x="290" y="450" />
            </Array>
          </mxGeometry>
        </mxCell>
        <mxCell id="CzGPOO1i0U-1WX9AUfrC-59" value="" style="endArrow=none;html=1;rounded=0;entryX=0.5;entryY=1;entryDx=0;entryDy=0;strokeColor=#FF6666;" edge="1" parent="1">
          <mxGeometry width="50" height="50" relative="1" as="geometry">
            <mxPoint x="80" y="529" as="sourcePoint" />
            <mxPoint x="290" y="519" as="targetPoint" />
            <Array as="points">
              <mxPoint x="290" y="529" />
            </Array>
          </mxGeometry>
        </mxCell>
        <mxCell id="CzGPOO1i0U-1WX9AUfrC-60" value="" style="endArrow=none;html=1;rounded=0;strokeColor=#FF6666;" edge="1" parent="1">
          <mxGeometry width="50" height="50" relative="1" as="geometry">
            <mxPoint x="80" y="530" as="sourcePoint" />
            <mxPoint x="80" y="370" as="targetPoint" />
          </mxGeometry>
        </mxCell>
        <mxCell id="CzGPOO1i0U-1WX9AUfrC-61" value="" style="endArrow=classic;html=1;rounded=0;strokeColor=#FF6666;" edge="1" parent="1">
          <mxGeometry width="50" height="50" relative="1" as="geometry">
            <mxPoint x="80" y="370" as="sourcePoint" />
            <mxPoint x="50" y="370" as="targetPoint" />
          </mxGeometry>
        </mxCell>
        <mxCell id="CzGPOO1i0U-1WX9AUfrC-62" value="" style="endArrow=classic;html=1;rounded=0;entryX=1;entryY=0.5;entryDx=0;entryDy=0;strokeColor=#FF6666;" edge="1" parent="1" target="CzGPOO1i0U-1WX9AUfrC-30">
          <mxGeometry width="50" height="50" relative="1" as="geometry">
            <mxPoint x="80" y="530" as="sourcePoint" />
            <mxPoint x="380" y="370" as="targetPoint" />
          </mxGeometry>
        </mxCell>
        <mxCell id="CzGPOO1i0U-1WX9AUfrC-63" value="" style="endArrow=classic;html=1;rounded=0;exitX=0.5;exitY=1;exitDx=0;exitDy=0;entryX=0.5;entryY=0;entryDx=0;entryDy=0;" edge="1" parent="1" source="CzGPOO1i0U-1WX9AUfrC-28" target="CzGPOO1i0U-1WX9AUfrC-29">
          <mxGeometry width="50" height="50" relative="1" as="geometry">
            <mxPoint x="230" y="470" as="sourcePoint" />
            <mxPoint x="280" y="420" as="targetPoint" />
          </mxGeometry>
        </mxCell>
        <mxCell id="CzGPOO1i0U-1WX9AUfrC-64" value="" style="endArrow=classic;html=1;rounded=0;exitX=0.5;exitY=0;exitDx=0;exitDy=0;entryX=0.5;entryY=1;entryDx=0;entryDy=0;" edge="1" parent="1" source="CzGPOO1i0U-1WX9AUfrC-30" target="CzGPOO1i0U-1WX9AUfrC-29">
          <mxGeometry width="50" height="50" relative="1" as="geometry">
            <mxPoint x="230" y="470" as="sourcePoint" />
            <mxPoint x="280" y="420" as="targetPoint" />
          </mxGeometry>
        </mxCell>
      </root>
    </mxGraphModel>
  </diagram>
</mxfile>
